<?xml version="1.0" ?>
<!-- Uploaded to: SVG Repo, www.svgrepo.com, Generator: SVG Repo Mixer Tools -->
<svg fill="#000000" width="800px" height="800px" viewBox="0 0 64 64" xmlns="http://www.w3.org/2000/svg">
<g data-name="13 money" id="_13_money">
<path d="M59.2,16.19a20.767,20.767,0,0,0-12.67-.29,48.549,48.549,0,0,0-4.62,1.66,46.881,46.881,0,0,1-4.57,1.63,18.224,18.224,0,0,1-8.99.43,15.963,15.963,0,0,1-3.9-1.58,20.055,20.055,0,0,0-12.93-2.52c-3.27.47-4.29.78-4.29,1.85v4.62c-.7.07-1.39.15-2.09.26A1.979,1.979,0,0,0,3.5,24.21V43.7a1.98,1.98,0,0,0,.68,1.5,1.941,1.941,0,0,0,1.54.45,33.148,33.148,0,0,1,11.22.17,34.245,34.245,0,0,1,4.48,1.28c1.34.44,2.72.9,4.15,1.22a26.061,26.061,0,0,0,5.81.64,29.921,29.921,0,0,0,5.2-.47,40.684,40.684,0,0,0,5.16-1.37,38.768,38.768,0,0,1,4.85-1.3,23.014,23.014,0,0,1,7.09-.14,1.855,1.855,0,0,0,1.48-.46,2.017,2.017,0,0,0,.68-1.51V38.7a22.43,22.43,0,0,1,2.49.15,1.62,1.62,0,0,0,.22.01,1.956,1.956,0,0,0,1.28-.48,1.986,1.986,0,0,0,.67-1.5V18.08A2.017,2.017,0,0,0,59.2,16.19ZM5.45,24.23a34.568,34.568,0,0,1,5.51-.44v1.47a4.13,4.13,0,0,1-4,4.23H5.46Zm5.51,19.03a36.2,36.2,0,0,0-5.46.44l-.02-6.25H6.96a4.13,4.13,0,0,1,4,4.23Zm42.88.42a25.636,25.636,0,0,0-5.46-.1v-1.9a4.13,4.13,0,0,1,4-4.23h1.46Zm0-8.23H52.38a6.121,6.121,0,0,0-6,6.23v2.15c-.05.01-.1.01-.15.02a43.69,43.69,0,0,0-5.09,1.36,39.691,39.691,0,0,1-4.91,1.31,25.771,25.771,0,0,1-10.22-.15,38.483,38.483,0,0,1-3.96-1.17,37.744,37.744,0,0,0-4.72-1.34,31.622,31.622,0,0,0-4.37-.54V41.68a6.121,6.121,0,0,0-6-6.23H5.48l-.01-3.96H6.96a6.127,6.127,0,0,0,6-6.23V23.85a30.7,30.7,0,0,1,3.98.5,35.872,35.872,0,0,1,4.48,1.28,41.6,41.6,0,0,0,4.15,1.23,28.055,28.055,0,0,0,11.01.16,40.684,40.684,0,0,0,5.16-1.37,41.566,41.566,0,0,1,4.64-1.25v.86a6.127,6.127,0,0,0,6,6.23h1.46Zm0-5.96H52.38a4.13,4.13,0,0,1-4-4.23V24.11a23.8,23.8,0,0,1,5.46.11Zm2,7.21V24.22a1.966,1.966,0,0,0-1.67-1.96,25.523,25.523,0,0,0-6.76-.04h-.03a1.01,1.01,0,0,0-.17.03c-.33.05-.65.08-.98.14a41.767,41.767,0,0,0-5.09,1.35,38,38,0,0,1-4.91,1.31,25.771,25.771,0,0,1-10.22-.15,38.483,38.483,0,0,1-3.96-1.17,39.527,39.527,0,0,0-4.72-1.34,33.483,33.483,0,0,0-5.23-.58c-.05,0-.09-.02-.14-.02a.3.3,0,0,0-.1.02c-.87-.03-1.75-.02-2.63.03V17.97a24.958,24.958,0,0,1,2.65-.48A18.1,18.1,0,0,1,23.5,19.8a17.56,17.56,0,0,0,4.41,1.77,20.2,20.2,0,0,0,9.96-.45,47.1,47.1,0,0,0,4.77-1.7,44.3,44.3,0,0,1,4.44-1.59,18.642,18.642,0,0,1,11.42.25l.07,18.78A25.283,25.283,0,0,0,55.84,36.7Z"/>
<path d="M32.5,39.54a2.829,2.829,0,0,1-1.83,1.87v.79a1,1,0,0,1-2,0v-.96a7.207,7.207,0,0,1-1.24-.82c-.15-.12-.29-.23-.43-.33a1,1,0,1,1,1.14-1.64c.17.12.34.25.52.39.44.34.94.73,1.27.7a.843.843,0,0,0,.67-.61.8.8,0,0,0-.21-.87l-2.26-1.9a2.8,2.8,0,0,1-.55-3.64,2.586,2.586,0,0,1,1.09-.96V30.49a1,1,0,1,1,2,0v.94a2.708,2.708,0,0,1,.83.46l.91.76a1,1,0,0,1-1.29,1.53l-.9-.75a.64.64,0,0,0-.5-.15.671.671,0,0,0-.45.31.806.806,0,0,0,.14,1.04l2.27,1.9A2.748,2.748,0,0,1,32.5,39.54Z"/>
</g>
</svg>