<?xml version="1.0" encoding="UTF-8"?>
<svg xmlns="http://www.w3.org/2000/svg" xmlns:xlink="http://www.w3.org/1999/xlink" width="30px" height="30px" viewBox="0 0 30 30" version="1.1">
<g id="surface1">
<path style="fill-rule:nonzero;fill:rgb(100%,100%,100%);fill-opacity:1;stroke-width:1;stroke-linecap:butt;stroke-linejoin:miter;stroke:rgb(100%,100%,100%);stroke-opacity:1;stroke-miterlimit:4;" d="M 26.575 5.3625 C 23.8875 2.675 20.170833 1.008333 16.066667 1.008333 C 7.854167 1.008333 1.2 7.6625 1.2 15.875 C 1.2 18.604167 1.9375 21.166667 3.220833 23.366667 L 3.183333 23.295833 L 1.075 30.995833 L 8.954167 28.929167 C 11.004167 30.070833 13.45 30.7375 16.054167 30.7375 L 16.0625 30.7375 C 24.270833 30.7375 30.925 24.079167 30.925 15.870833 C 30.925 11.766667 29.2625 8.054167 26.575 5.3625 Z M 16.0625 28.229167 L 16.058333 28.229167 C 16.058333 28.229167 16.054167 28.229167 16.054167 28.229167 C 13.7375 28.229167 11.566667 27.5875 9.7125 26.475 L 9.770833 26.504167 L 9.320833 26.2375 L 4.645833 27.466667 L 5.891667 22.908333 L 5.595833 22.441667 C 4.4125 20.579167 3.708333 18.308333 3.708333 15.875 C 3.708333 9.054167 9.2375 3.520833 16.0625 3.520833 C 22.883333 3.520833 28.4125 9.054167 28.4125 15.875 C 28.4125 22.695833 22.883333 28.229167 16.0625 28.229167 Z M 22.8375 18.975 C 22.466667 18.791667 20.641667 17.895833 20.3 17.770833 C 19.958333 17.645833 19.7125 17.583333 19.4625 17.954167 C 19.216667 18.325 18.504167 19.1625 18.2875 19.4125 C 18.075 19.658333 17.854167 19.691667 17.483333 19.504167 C 16.333333 19.0375 15.345833 18.416667 14.4875 17.654167 L 14.495833 17.6625 C 13.7 16.920833 13.0125 16.075 12.458333 15.141667 L 12.433333 15.0875 C 12.216667 14.716667 12.408333 14.516667 12.595833 14.333333 C 12.7625 14.166667 12.966667 13.9 13.15 13.683333 C 13.295833 13.504167 13.420833 13.3 13.516667 13.079167 L 13.525 13.0625 C 13.566667 12.975 13.591667 12.875 13.591667 12.766667 C 13.591667 12.633333 13.554167 12.5125 13.491667 12.408333 L 13.491667 12.4125 C 13.4 12.225 12.654167 10.395833 12.345833 9.654167 C 12.045833 8.929167 11.7375 9.029167 11.5125 9.016667 C 11.295833 9.004167 11.045833 9.004167 10.8 9.004167 C 10.404167 9.0125 10.054167 9.191667 9.8125 9.466667 L 9.808333 9.470833 C 9.008333 10.229167 8.508333 11.304167 8.508333 12.491667 C 8.508333 12.516667 8.508333 12.545833 8.5125 12.570833 L 8.5125 12.566667 C 8.641667 14.033333 9.191667 15.35 10.0375 16.425 L 10.025 16.408333 C 11.629167 18.7875 13.766667 20.691667 16.275 21.975 L 16.370833 22.016667 C 16.920833 22.2625 17.620833 22.529167 18.3375 22.754167 L 18.4875 22.795833 C 18.929167 22.9375 19.4375 23.016667 19.966667 23.016667 C 20.270833 23.016667 20.566667 22.991667 20.854167 22.941667 L 20.825 22.945833 C 21.895833 22.720833 22.779167 22.075 23.320833 21.195833 L 23.329167 21.179167 C 23.495833 20.8125 23.591667 20.383333 23.591667 19.9375 C 23.591667 19.75 23.575 19.570833 23.545833 19.395833 L 23.55 19.4125 C 23.454167 19.258333 23.208333 19.166667 22.8375 18.979167 Z M 22.8375 18.975 " transform="matrix(0.9375,0,0,0.9375,0,0)"/>
</g>
</svg>
